<svg xmlns="http://www.w3.org/2000/svg"  viewBox="0 0 50 50" width="25px" height="25px"><path d="M 15 12 C 9.467 12 7 16.935 7 28 C 7 37.092 10.263 39 13 39 C 15.184 39 16.414516 36.771187 17.603516 34.617188 C 18.858516 32.347187 20.156 30 22.5 30 L 27.5 30 C 29.844 30 31.141484 32.347187 32.396484 34.617188 C 33.585484 36.771187 34.816 39 37 39 C 39.737 39 42.999047 37.092 42.998047 28 C 42.998047 16.935 40.531047 12 34.998047 12 C 32.141047 12 28.092531 13.698 27.394531 14 L 22.603516 14 C 21.905516 13.698 17.858 12 15 12 z M 15 13 C 17.858 13 22.252875 14.938031 22.296875 14.957031 C 22.360875 14.985031 22.43 15 22.5 15 L 27.5 15 C 27.57 15 27.639125 14.985031 27.703125 14.957031 C 27.747125 14.938031 32.139 13 35 13 C 39.841 13 42 17.626 42 28 C 42 32.562 41.132 38 37 38 C 35.406 38 34.369484 36.122766 33.271484 34.134766 C 31.941484 31.728766 30.434 29 27.5 29 L 22.5 29 C 19.566 29 18.058516 31.728766 16.728516 34.134766 C 15.630516 36.122766 14.594 38 13 38 C 8.868 38 8 32.562 8 28 C 8 17.626 10.159 13 15 13 z M 34 17 C 33.172 17 32.5 17.672 32.5 18.5 C 32.5 19.328 33.172 20 34 20 C 34.828 20 35.5 19.328 35.5 18.5 C 35.5 17.672 34.828 17 34 17 z M 15 18 C 14.448 18 14 18.448 14 19 L 14 20.5 L 12.5 20.5 C 11.948 20.5 11.5 20.948 11.5 21.5 L 11.5 22.5 C 11.5 23.052 11.948 23.5 12.5 23.5 L 14 23.5 L 14 25 C 14 25.552 14.448 26 15 26 L 16 26 C 16.552 26 17 25.552 17 25 L 17 23.5 L 18.5 23.5 C 19.052 23.5 19.5 23.052 19.5 22.5 L 19.5 21.5 C 19.5 20.948 19.052 20.5 18.5 20.5 L 17 20.5 L 17 19 C 17 18.448 16.552 18 16 18 L 15 18 z M 31 20 C 30.172 20 29.5 20.672 29.5 21.5 C 29.5 22.328 30.172 23 31 23 C 31.828 23 32.5 22.328 32.5 21.5 C 32.5 20.672 31.828 20 31 20 z M 37 20 C 36.172 20 35.5 20.672 35.5 21.5 C 35.5 22.328 36.172 23 37 23 C 37.828 23 38.5 22.328 38.5 21.5 C 38.5 20.672 37.828 20 37 20 z M 34 23 C 33.172 23 32.5 23.672 32.5 24.5 C 32.5 25.328 33.172 26 34 26 C 34.828 26 35.5 25.328 35.5 24.5 C 35.5 23.672 34.828 23 34 23 z"/></svg>