<svg xmlns="http://www.w3.org/2000/svg"  viewBox="0 0 50 50" width="25px" height="25px"><path d="M 25 8.5 C 20.286 8.5 16.243375 10.022344 13.359375 12.902344 C 10.398375 15.860344 8.6992188 20.247406 8.6992188 24.941406 C 8.6992188 26.999501 9.065467 29.755049 9.5097656 32.369141 C 9.2912956 32.276479 9.0531568 32.224775 8.8027344 32.273438 C 8.1337344 32.403438 7.6961719 33.051703 7.8261719 33.720703 L 8.9023438 38.9375 C 9.0323437 39.6065 9.6806094 40.044063 10.349609 39.914062 C 10.594127 39.866548 10.790855 39.733911 10.957031 39.572266 C 11.001213 39.761682 11.104123 40.219498 11.113281 40.257812 C 11.178281 40.526813 11.450797 40.692906 11.716797 40.628906 C 11.985797 40.564906 12.149938 40.294391 12.085938 40.025391 C 12.061938 39.926391 9.6992188 30.022406 9.6992188 24.941406 C 9.6992188 20.511406 11.292406 16.380375 14.066406 13.609375 C 16.758406 10.920375 20.555 9.5 25 9.5 C 29.444 9.5 33.242594 10.920375 35.933594 13.609375 C 38.708594 16.380375 40.298828 20.511406 40.298828 24.941406 C 40.298828 30.022406 37.936109 39.925391 37.912109 40.025391 C 37.848109 40.294391 38.014203 40.564906 38.283203 40.628906 C 38.322203 40.638906 38.361391 40.642578 38.400391 40.642578 C 38.626391 40.642578 38.831719 40.488766 38.886719 40.259766 C 38.895986 40.221292 38.998582 39.762317 39.042969 39.572266 C 39.209145 39.733911 39.405873 39.866548 39.650391 39.914062 C 40.319391 40.044063 40.967656 39.6065 41.097656 38.9375 L 42.173828 33.720703 C 42.303828 33.051703 41.866266 32.403438 41.197266 32.273438 C 40.946843 32.224775 40.708704 32.276479 40.490234 32.369141 C 40.934595 29.754987 41.300781 26.999501 41.300781 24.941406 C 41.300781 20.247406 39.601625 15.860344 36.640625 12.902344 C 33.755625 10.022344 29.714 8.5 25 8.5 z M 12.154297 31.019531 C 11.613297 31.128531 11.261141 31.653312 11.369141 32.195312 L 12.769531 39.195312 C 12.863531 39.670313 13.281047 40 13.748047 40 C 13.813047 40 13.880266 39.993469 13.947266 39.980469 C 14.488266 39.871469 14.838469 39.346688 14.730469 38.804688 L 13.330078 31.804688 C 13.222078 31.263687 12.697297 30.912531 12.154297 31.019531 z M 37.447266 31.019531 C 37.064766 31.097906 36.750922 31.398937 36.669922 31.804688 L 35.269531 38.802734 C 35.160531 39.344734 35.512687 39.872469 36.054688 39.980469 C 36.120688 39.994469 36.186953 40 36.251953 40 C 36.718953 40 37.136469 39.671266 37.230469 39.197266 L 38.630859 32.197266 C 38.739859 31.655266 38.387703 31.127531 37.845703 31.019531 C 37.709203 30.992281 37.574766 30.993406 37.447266 31.019531 z"/></svg>