<svg xmlns="http://www.w3.org/2000/svg"  viewBox="0 0 50 50" width="25px" height="25px"><path d="M 8.5019531 9.0019531 C 6.5719531 9.0019531 5.0019531 10.571953 5.0019531 12.501953 L 5.0019531 33.501953 C 5.0019531 35.431953 6.5719531 37.001953 8.5019531 37.001953 L 19 37.001953 L 19 41 L 17.996094 41 C 17.720094 41 17.496094 41.224 17.496094 41.5 C 17.496094 41.776 17.720094 42 17.996094 42 L 32 42 C 32.276 42 32.5 41.776 32.5 41.5 C 32.5 41.224 32.276 41 32 41 L 30.998047 41 L 30.998047 37.001953 L 41.5 37.001953 C 43.43 37.001953 45 35.431953 45 33.501953 L 45 12.501953 C 45 10.571953 43.43 9.0019531 41.5 9.0019531 L 8.5019531 9.0019531 z M 8.5019531 10.001953 L 41.5 10.001953 C 42.878 10.001953 44 11.123953 44 12.501953 L 44 33.501953 C 44 34.879953 42.878 36.001953 41.5 36.001953 L 8.5019531 36.001953 C 7.1239531 36.001953 6.0019531 34.879953 6.0019531 33.501953 L 6.0019531 12.501953 C 6.0019531 11.123953 7.1239531 10.001953 8.5019531 10.001953 z M 27.425781 15.972656 C 26.779781 16.016656 26.024984 16.428891 25.583984 16.962891 C 25.184984 17.448891 24.854422 18.170141 24.982422 18.869141 C 25.685422 18.891141 26.414891 18.469781 26.837891 17.925781 C 27.231891 17.418781 27.533781 16.702656 27.425781 15.972656 z M 27.660156 18.787109 C 26.574156 18.787109 26.115328 19.306641 25.361328 19.306641 C 24.585328 19.306641 23.993688 18.789062 23.054688 18.789062 C 22.130687 18.789062 21.149344 19.351594 20.527344 20.308594 C 19.651344 21.657594 19.802703 24.194422 21.220703 26.357422 C 21.729703 27.129422 22.406922 27.997859 23.294922 28.005859 C 24.081922 28.013859 24.304047 27.503047 25.373047 27.498047 C 26.442047 27.490047 26.645594 28.009906 27.433594 28.003906 C 28.319594 27.995906 29.035969 27.032766 29.542969 26.259766 C 29.907969 25.706766 30.042219 25.426781 30.324219 24.800781 C 28.272219 24.025781 27.942656 21.122813 29.972656 20.007812 C 29.351656 19.235813 28.481156 18.787109 27.660156 18.787109 z"/></svg>