<svg xmlns="http://www.w3.org/2000/svg"  viewBox="0 0 50 50" width="25px" height="25px"><path d="M 10.5 9 C 8.019 9 6 11.019 6 13.5 L 6 36.5 C 6 38.981 8.019 41 10.5 41 L 21.5 41 C 23.981 41 26 38.981 26 36.5 L 26 13.5 C 26 11.019 23.981 9 21.5 9 L 10.5 9 z M 10.5 10 L 21.5 10 C 23.43 10 25 11.57 25 13.5 L 25 36.5 C 25 38.43 23.43 40 21.5 40 L 10.5 40 C 8.57 40 7 38.43 7 36.5 L 7 13.5 C 7 11.57 8.57 10 10.5 10 z M 27 14 L 27 14.294922 L 27 15 L 40.5 15 C 41.88 15 43 16.12 43 17.5 L 43 32.5 C 43 33.88 41.88 35 40.5 35 L 27 35 L 27 35.699219 L 27 36 L 27 36.5 C 27 37.849885 26.502084 39.094168 25.689453 40.052734 C 25.381467 40.410186 25.04016 40.733816 24.650391 41 L 33.5 41 C 33.78 41 34 40.78 34 40.5 C 34 40.22 33.78 40 33.5 40 L 32 40 L 32 36 L 40.5 36 C 42.43 36 44 34.43 44 32.5 L 44 17.5 C 44 15.57 42.43 14 40.5 14 L 27 14 z M 11.5 15 C 10.672 15 10 15.672 10 16.5 L 10 17.5 C 10 18.328 10.672 19 11.5 19 L 20.5 19 C 21.328 19 22 18.328 22 17.5 L 22 16.5 C 22 15.672 21.328 15 20.5 15 L 11.5 15 z M 11.5 21 C 10.672 21 10 21.672 10 22.5 L 10 23.5 C 10 24.328 10.672 25 11.5 25 L 20.5 25 C 21.328 25 22 24.328 22 23.5 L 22 22.5 C 22 21.672 21.328 21 20.5 21 L 11.5 21 z M 16 31 C 14.895 31 14 31.895 14 33 C 14 34.105 14.895 35 16 35 C 17.105 35 18 34.105 18 33 C 18 31.895 17.105 31 16 31 z"/></svg>