<svg xmlns="http://www.w3.org/2000/svg"  viewBox="0 0 50 50" width="25px" height="25px"><path d="M 21.818359 5 C 19.753359 5 17.957125 6.3993437 17.453125 8.4023438 L 16.716797 11.371094 C 15.120784 12.06338 14 13.652647 14 15.5 L 14 34.5 C 14 36.347965 15.121893 37.936986 16.71875 38.628906 L 17.455078 41.597656 C 17.959078 43.600656 19.753359 45 21.818359 45 L 28.181641 45 C 30.246641 45 32.042875 43.600656 32.546875 41.597656 L 33.283203 38.628906 C 34.879216 37.93662 36 36.347353 36 34.5 L 36 30 C 36.552 30 37 29.552 37 29 L 37 25 C 37 24.448 36.552 24 36 24 L 36 22 C 36.552 22 37 21.552 37 21 L 37 17 C 37 16.448 36.552 16 36 16 L 36 15.5 C 36 13.652035 34.878107 12.063014 33.28125 11.371094 L 32.544922 8.4023438 C 32.040922 6.3993437 30.246641 5 28.181641 5 L 21.818359 5 z M 21.818359 6 L 28.181641 6 C 29.787641 6 31.183219 7.0874844 31.574219 8.6464844 L 32.175781 11.068359 C 31.953816 11.034538 31.731254 11 31.5 11 L 18.5 11 C 18.268746 11 18.046184 11.034538 17.824219 11.068359 L 18.425781 8.6464844 C 18.817781 7.0884844 20.212359 6 21.818359 6 z M 18.5 12 L 31.5 12 C 33.43 12 35 13.57 35 15.5 L 35 34.5 C 35 36.43 33.43 38 31.5 38 L 18.5 38 C 16.57 38 15 36.43 15 34.5 L 15 15.5 C 15 13.57 16.57 12 18.5 12 z M 17.824219 38.931641 C 18.046184 38.965462 18.268746 39 18.5 39 L 31.5 39 C 31.731254 39 31.953816 38.965462 32.175781 38.931641 L 31.574219 41.353516 C 31.182219 42.911516 29.787641 44 28.181641 44 L 21.818359 44 C 20.212359 44 18.815781 42.911516 18.425781 41.353516 L 17.824219 38.931641 z"/></svg>