<svg xmlns="http://www.w3.org/2000/svg"  viewBox="0 0 50 50" width="25px" height="25px"><path d="M 18.5 7 C 16.019 7 14 9.019 14 11.5 L 14 39.5 C 14 41.981 16.019 44 18.5 44 L 31.5 44 C 33.981 44 36 41.981 36 39.5 L 36 11.5 C 36 9.019 33.981 7 31.5 7 L 31 7 L 19 7 L 18.5 7 z M 18.5 8 L 19 8 C 19 9.105 19.767844 10 20.714844 10 L 29.285156 10 C 30.231156 10 31 9.105 31 8 L 31.5 8 C 33.43 8 35 9.57 35 11.5 L 35 39.5 C 35 41.43 33.43 43 31.5 43 L 18.5 43 C 16.57 43 15 41.43 15 39.5 L 15 11.5 C 15 9.57 16.57 8 18.5 8 z"/></svg>