<svg width="21" height="20" viewBox="0 0 21 20" fill="none" xmlns="http://www.w3.org/2000/svg">
<path d="M9.2033 0C4.61357 0 0.875 3.73857 0.875 8.3283C0.875 12.918 4.61357 16.6566 9.2033 16.6566C11.1992 16.6566 13.0321 15.9479 14.4687 14.7714L19.4413 19.7439C19.518 19.8239 19.6099 19.8877 19.7116 19.9316C19.8133 19.9756 19.9228 19.9988 20.0336 20C20.1444 20.0011 20.2543 19.9801 20.3569 19.9382C20.4595 19.8963 20.5527 19.8344 20.631 19.756C20.7094 19.6777 20.7713 19.5845 20.8132 19.4819C20.8551 19.3793 20.8761 19.2694 20.875 19.1586C20.8738 19.0478 20.8506 18.9383 20.8066 18.8366C20.7627 18.7349 20.6989 18.643 20.6189 18.5663L15.6464 13.5937C16.8229 12.1571 17.5316 10.3242 17.5316 8.3283C17.5316 3.73857 13.793 0 9.2033 0ZM9.2033 1.66566C12.8928 1.66566 15.8659 4.63876 15.8659 8.3283C15.8659 12.0178 12.8928 14.9909 9.2033 14.9909C5.51376 14.9909 2.54066 12.0178 2.54066 8.3283C2.54066 4.63876 5.51376 1.66566 9.2033 1.66566Z" fill="#6B6B6B"/>
</svg>
