<svg width="105" height="80" viewBox="0 0 105 80" fill="none" xmlns="http://www.w3.org/2000/svg">
<path d="M7.53725 50V45.408H8.93725V32.808H7.53725V28.216H26.4373V36.672H20.1653V32.808H16.7773V37.232H19.2413V40.424H16.7773V45.408H20.1653V40.984H26.4373V50H7.53725Z" fill="#D9D9D9"/>
<path d="M34.2462 50.392C31.8942 50.392 29.6262 50.0187 27.4422 49.272V45.128H31.9782V45.408C31.9782 46.304 32.5475 46.752 33.6862 46.752C34.6942 46.752 35.1982 46.4067 35.1982 45.716C35.1982 45.3427 35.0489 45.0627 34.7502 44.876C34.4702 44.6893 33.9662 44.5307 33.2382 44.4L31.8382 44.148C28.9075 43.6253 27.4422 41.964 27.4422 39.164C27.4422 37.54 28.0582 36.28 29.2902 35.384C30.5222 34.488 32.1835 34.04 34.2742 34.04C36.6075 34.04 38.5769 34.432 40.1822 35.216V39.108H35.9262V38.828C35.9262 38.4547 35.7955 38.1747 35.5342 37.988C35.2915 37.7827 34.9275 37.68 34.4422 37.68C33.5089 37.68 33.0422 37.9787 33.0422 38.576C33.0422 38.8933 33.1729 39.136 33.4342 39.304C33.6955 39.472 34.1715 39.6307 34.8622 39.78L36.4582 40.088C38.1195 40.4053 39.3049 40.9933 40.0142 41.852C40.7235 42.7107 41.0782 43.812 41.0782 45.156C41.0782 46.8547 40.4809 48.152 39.2862 49.048C38.1102 49.944 36.4302 50.392 34.2462 50.392ZM48.8777 50.392C46.8991 50.392 45.4057 49.916 44.3977 48.964C43.4084 47.9933 42.9137 46.3693 42.9137 44.092V39.024H41.6817V34.432C42.3911 34.432 42.9231 34.2547 43.2777 33.9C43.6324 33.5267 43.8097 33.0227 43.8097 32.388V31.128H49.7457V34.432H53.5257V39.024H49.7457V43.616C49.7457 44.232 49.8764 44.6893 50.1377 44.988C50.4177 45.268 50.8284 45.408 51.3697 45.408C52.0791 45.408 52.8537 45.324 53.6937 45.156V49.552C53.1711 49.7573 52.4617 49.944 51.5657 50.112C50.6884 50.2987 49.7924 50.392 48.8777 50.392ZM62.9385 50.392C60.2879 50.392 58.2159 49.7013 56.7225 48.32C55.2292 46.92 54.4825 44.8853 54.4825 42.216C54.4825 39.5467 55.2292 37.5213 56.7225 36.14C58.2159 34.74 60.2879 34.04 62.9385 34.04C65.6265 34.04 67.7079 34.7493 69.1825 36.168C70.6572 37.568 71.3945 39.584 71.3945 42.216C71.3945 44.8853 70.6479 46.92 69.1545 48.32C67.6612 49.7013 65.5892 50.392 62.9385 50.392ZM62.9385 45.408C63.4799 45.408 63.8812 45.268 64.1425 44.988C64.4225 44.6893 64.5625 44.232 64.5625 43.616V40.816C64.5625 40.2 64.4225 39.752 64.1425 39.472C63.8812 39.1733 63.4799 39.024 62.9385 39.024C62.3972 39.024 61.9865 39.1733 61.7065 39.472C61.4452 39.752 61.3145 40.2 61.3145 40.816V43.616C61.3145 44.232 61.4452 44.6893 61.7065 44.988C61.9865 45.268 62.3972 45.408 62.9385 45.408ZM84.2419 34.04C84.6153 34.04 84.9699 34.0773 85.3059 34.152C85.6419 34.2267 85.9219 34.32 86.1459 34.432V39.78C85.3806 39.4627 84.5593 39.304 83.6819 39.304C82.5059 39.304 81.6006 39.612 80.9659 40.228C80.3313 40.844 80.0139 41.7587 80.0139 42.972V45.408H82.5339V50H72.3419V45.408H73.5739V39.024H72.3419V34.432H80.0139V36.476C80.5366 35.692 81.1339 35.0947 81.8059 34.684C82.4779 34.2547 83.2899 34.04 84.2419 34.04ZM95.3956 50.392C92.7449 50.392 90.6729 49.7013 89.1796 48.32C87.6862 46.92 86.9396 44.8853 86.9396 42.216C86.9396 39.5467 87.6862 37.5213 89.1796 36.14C90.6729 34.74 92.7449 34.04 95.3956 34.04C98.0276 34.04 99.9222 34.7307 101.08 36.112C102.256 37.4747 102.844 39.1733 102.844 41.208V43.224H93.7716V43.392C93.7716 44.0827 93.9769 44.596 94.3876 44.932C94.7982 45.2493 95.4796 45.408 96.4316 45.408C97.5702 45.408 98.6529 45.324 99.6796 45.156C100.706 44.988 101.602 44.7733 102.368 44.512V48.992C101.714 49.3467 100.753 49.6733 99.4836 49.972C98.2329 50.252 96.8702 50.392 95.3956 50.392ZM97.0196 40.144V39.808C97.0196 39.1733 96.8796 38.716 96.5996 38.436C96.3382 38.156 95.9369 38.016 95.3956 38.016C94.8542 38.016 94.4436 38.1653 94.1636 38.464C93.9022 38.744 93.7716 39.192 93.7716 39.808V40.144H97.0196Z" fill="white"/>
<path d="M6.52741 8.10156C2.92863 8.10156 0 11.4171 0 15.4912V61.4714C0 65.5456 2.92863 68.8611 6.52741 68.8611H25.3844C28.9831 68.8611 31.9118 65.5456 31.9118 61.4714V15.4912C31.9118 11.4171 28.9831 8.10156 25.3844 8.10156H24.6591H7.25267H6.52741ZM6.52741 9.74371H7.25267C7.25267 11.5583 8.36646 13.028 9.74011 13.028H22.1716C23.5439 13.028 24.6591 11.5583 24.6591 9.74371H25.3844C28.1839 9.74371 30.4612 12.3219 30.4612 15.4912V61.4714C30.4612 64.6407 28.1839 67.2189 25.3844 67.2189H6.52741C3.72787 67.2189 1.45053 64.6407 1.45053 61.4714V15.4912C1.45053 12.3219 3.72787 9.74371 6.52741 9.74371Z" fill="#FAFAFA"/>
</svg>
