<svg width="105" height="62" viewBox="0 0 105 62" fill="none" xmlns="http://www.w3.org/2000/svg">
<path d="M7.53725 41V36.408H8.93725V23.808H7.53725V19.216H26.4373V27.672H20.1653V23.808H16.7773V28.232H19.2413V31.424H16.7773V36.408H20.1653V31.984H26.4373V41H7.53725ZM34.2462 41.392C31.8942 41.392 29.6262 41.0187 27.4422 40.272V36.128H31.9782V36.408C31.9782 37.304 32.5475 37.752 33.6862 37.752C34.6942 37.752 35.1982 37.4067 35.1982 36.716C35.1982 36.3427 35.0489 36.0627 34.7502 35.876C34.4702 35.6893 33.9662 35.5307 33.2382 35.4L31.8382 35.148C28.9075 34.6253 27.4422 32.964 27.4422 30.164C27.4422 28.54 28.0582 27.28 29.2902 26.384C30.5222 25.488 32.1835 25.04 34.2742 25.04C36.6075 25.04 38.5769 25.432 40.1822 26.216V30.108H35.9262V29.828C35.9262 29.4547 35.7955 29.1747 35.5342 28.988C35.2915 28.7827 34.9275 28.68 34.4422 28.68C33.5089 28.68 33.0422 28.9787 33.0422 29.576C33.0422 29.8933 33.1729 30.136 33.4342 30.304C33.6955 30.472 34.1715 30.6307 34.8622 30.78L36.4582 31.088C38.1195 31.4053 39.3049 31.9933 40.0142 32.852C40.7235 33.7107 41.0782 34.812 41.0782 36.156C41.0782 37.8547 40.4809 39.152 39.2862 40.048C38.1102 40.944 36.4302 41.392 34.2462 41.392ZM48.8777 41.392C46.8991 41.392 45.4057 40.916 44.3977 39.964C43.4084 38.9933 42.9137 37.3693 42.9137 35.092V30.024H41.6817V25.432C42.3911 25.432 42.9231 25.2547 43.2777 24.9C43.6324 24.5267 43.8097 24.0227 43.8097 23.388V22.128H49.7457V25.432H53.5257V30.024H49.7457V34.616C49.7457 35.232 49.8764 35.6893 50.1377 35.988C50.4177 36.268 50.8284 36.408 51.3697 36.408C52.0791 36.408 52.8537 36.324 53.6937 36.156V40.552C53.1711 40.7573 52.4617 40.944 51.5657 41.112C50.6884 41.2987 49.7924 41.392 48.8777 41.392ZM62.9385 41.392C60.2879 41.392 58.2159 40.7013 56.7225 39.32C55.2292 37.92 54.4825 35.8853 54.4825 33.216C54.4825 30.5467 55.2292 28.5213 56.7225 27.14C58.2159 25.74 60.2879 25.04 62.9385 25.04C65.6265 25.04 67.7079 25.7493 69.1825 27.168C70.6572 28.568 71.3945 30.584 71.3945 33.216C71.3945 35.8853 70.6479 37.92 69.1545 39.32C67.6612 40.7013 65.5892 41.392 62.9385 41.392ZM62.9385 36.408C63.4799 36.408 63.8812 36.268 64.1425 35.988C64.4225 35.6893 64.5625 35.232 64.5625 34.616V31.816C64.5625 31.2 64.4225 30.752 64.1425 30.472C63.8812 30.1733 63.4799 30.024 62.9385 30.024C62.3972 30.024 61.9865 30.1733 61.7065 30.472C61.4452 30.752 61.3145 31.2 61.3145 31.816V34.616C61.3145 35.232 61.4452 35.6893 61.7065 35.988C61.9865 36.268 62.3972 36.408 62.9385 36.408ZM84.2419 25.04C84.6153 25.04 84.9699 25.0773 85.3059 25.152C85.6419 25.2267 85.9219 25.32 86.1459 25.432V30.78C85.3806 30.4627 84.5593 30.304 83.6819 30.304C82.5059 30.304 81.6006 30.612 80.9659 31.228C80.3313 31.844 80.0139 32.7587 80.0139 33.972V36.408H82.5339V41H72.3419V36.408H73.5739V30.024H72.3419V25.432H80.0139V27.476C80.5366 26.692 81.1339 26.0947 81.8059 25.684C82.4779 25.2547 83.2899 25.04 84.2419 25.04ZM95.3956 41.392C92.7449 41.392 90.6729 40.7013 89.1796 39.32C87.6862 37.92 86.9396 35.8853 86.9396 33.216C86.9396 30.5467 87.6862 28.5213 89.1796 27.14C90.6729 25.74 92.7449 25.04 95.3956 25.04C98.0276 25.04 99.9222 25.7307 101.08 27.112C102.256 28.4747 102.844 30.1733 102.844 32.208V34.224H93.7716V34.392C93.7716 35.0827 93.9769 35.596 94.3876 35.932C94.7982 36.2493 95.4796 36.408 96.4316 36.408C97.5702 36.408 98.6529 36.324 99.6796 36.156C100.706 35.988 101.602 35.7733 102.368 35.512V39.992C101.714 40.3467 100.753 40.6733 99.4836 40.972C98.2329 41.252 96.8702 41.392 95.3956 41.392ZM97.0196 31.144V30.808C97.0196 30.1733 96.8796 29.716 96.5996 29.436C96.3382 29.156 95.9369 29.016 95.3956 29.016C94.8542 29.016 94.4436 29.1653 94.1636 29.464C93.9022 29.744 93.7716 30.192 93.7716 30.808V31.144H97.0196Z" fill="white"/>
<path d="M6.52741 6.28125C2.92863 6.28125 0 8.85076 0 12.0082V47.6429C0 50.8003 2.92863 53.3699 6.52741 53.3699H25.3844C28.9831 53.3699 31.9118 50.8003 31.9118 47.6429V12.0082C31.9118 8.85076 28.9831 6.28125 25.3844 6.28125H24.6591H7.25267H6.52741ZM6.52741 7.55392H7.25267C7.25267 8.96021 8.36646 10.0992 9.74011 10.0992H22.1716C23.5439 10.0992 24.6591 8.96021 24.6591 7.55392H25.3844C28.1839 7.55392 30.4612 9.552 30.4612 12.0082V47.6429C30.4612 50.0991 28.1839 52.0972 25.3844 52.0972H6.52741C3.72787 52.0972 1.45053 50.0991 1.45053 47.6429V12.0082C1.45053 9.552 3.72787 7.55392 6.52741 7.55392Z" fill="#FAFAFA"/>
</svg>
